<mxfile host="Electron" modified="2024-06-05T17:24:39.551Z" agent="Mozilla/5.0 (Windows NT 10.0; Win64; x64) AppleWebKit/537.36 (KHTML, like Gecko) draw.io/24.4.0 Chrome/120.0.6099.109 Electron/28.1.0 Safari/537.36" etag="C7I_c7pRo6lCNbU0JMhp" version="24.4.0" type="device">
  <diagram name="Page-1" id="JLo1vtfuGHZzlIRj3WlP">
    <mxGraphModel dx="1036" dy="702" grid="1" gridSize="10" guides="1" tooltips="1" connect="1" arrows="1" fold="1" page="1" pageScale="1" pageWidth="850" pageHeight="1100" math="0" shadow="0">
      <root>
        <mxCell id="0" />
        <mxCell id="1" parent="0" />
        <mxCell id="hE2aytdYcMFJDA330YLO-1" value="User Search" style="whiteSpace=wrap;strokeWidth=2;" vertex="1" parent="1">
          <mxGeometry x="33" y="20" width="99" height="33" as="geometry" />
        </mxCell>
        <mxCell id="hE2aytdYcMFJDA330YLO-2" value="Data Collection" style="whiteSpace=wrap;strokeWidth=2;" vertex="1" parent="1">
          <mxGeometry x="20" y="103" width="125" height="33" as="geometry" />
        </mxCell>
        <mxCell id="hE2aytdYcMFJDA330YLO-3" value="Comparison" style="whiteSpace=wrap;strokeWidth=2;" vertex="1" parent="1">
          <mxGeometry x="33" y="187" width="98" height="33" as="geometry" />
        </mxCell>
        <mxCell id="hE2aytdYcMFJDA330YLO-4" value="Presentation" style="whiteSpace=wrap;strokeWidth=2;" vertex="1" parent="1">
          <mxGeometry x="30" y="270" width="105" height="33" as="geometry" />
        </mxCell>
        <mxCell id="hE2aytdYcMFJDA330YLO-5" value="" style="curved=1;startArrow=none;endArrow=block;exitX=0.501388896595348;exitY=1.0121212583599668;entryX=0.5011000061035156;entryY=0.012121258359966856;rounded=0;" edge="1" parent="1" source="hE2aytdYcMFJDA330YLO-1" target="hE2aytdYcMFJDA330YLO-2">
          <mxGeometry relative="1" as="geometry">
            <Array as="points" />
          </mxGeometry>
        </mxCell>
        <mxCell id="hE2aytdYcMFJDA330YLO-6" value="" style="curved=1;startArrow=none;endArrow=block;exitX=0.5011000061035156;exitY=1.0242425167199336;entryX=0.5065051098259128;entryY=-0.006060513583096591;rounded=0;" edge="1" parent="1" source="hE2aytdYcMFJDA330YLO-2" target="hE2aytdYcMFJDA330YLO-3">
          <mxGeometry relative="1" as="geometry">
            <Array as="points" />
          </mxGeometry>
        </mxCell>
        <mxCell id="hE2aytdYcMFJDA330YLO-7" value="" style="curved=1;startArrow=none;endArrow=block;exitX=0.5065051098259128;exitY=1.0060607447768704;entryX=0.5013095310756138;entryY=0.006060744776870265;rounded=0;" edge="1" parent="1" source="hE2aytdYcMFJDA330YLO-3" target="hE2aytdYcMFJDA330YLO-4">
          <mxGeometry relative="1" as="geometry">
            <Array as="points" />
          </mxGeometry>
        </mxCell>
      </root>
    </mxGraphModel>
  </diagram>
</mxfile>
